<svg width="1440" height="164" viewBox="0 0 1440 164" fill="none" xmlns="http://www.w3.org/2000/svg">
<path d="M131.5 110.5L145 87L159 131.599L167.992 108.622H192.581L204.431 19.7402L219.244 131.599L226.472 108.622H245.5L262.5 68L279.382 108.622H309.172L315 19.7402L323.5 163.5L328.56 108.622H377.442L389.366 61.5775L405.5 135.5L420.692 35.2281L434.097 108.622H529.417L536.33 146.486L560.5 61.5775L574.5 110.5" stroke="#740606" stroke-width="5" stroke-miterlimit="10"/>
<path d="M134 109H0" stroke="#740606" stroke-width="5"/>
<path d="M572.5 109L1246 111.969" stroke="#740606" stroke-width="5"/>
<path d="M1244 112.76L1257.5 89.2598L1271.5 133.858L1280.49 110.881H1305.08L1316.93 22L1331.74 133.858L1340.5 109.5" stroke="#740606" stroke-width="5" stroke-miterlimit="10"/>
<path d="M1338 111H1440" stroke="#740606" stroke-width="5"/>
</svg>
