<svg width="36" height="34" viewBox="0 0 36 34" fill="none" xmlns="http://www.w3.org/2000/svg">
<path fill-rule="evenodd" clip-rule="evenodd" d="M0.269043 17C0.269043 7.61116 8.09442 0 17.7475 0C27.4006 0 35.226 7.61116 35.226 17C35.226 26.3888 27.4006 34 17.7475 34C8.09442 34 0.269043 26.3888 0.269043 17Z" fill="#CCE3EC"/>
<path fill-rule="evenodd" clip-rule="evenodd" d="M17.7485 7.93335C15.2168 7.93335 14.8991 7.94412 13.9048 7.98813C12.9124 8.03233 12.235 8.18514 11.6422 8.40935C11.0291 8.64093 10.509 8.95072 9.9909 9.45487C9.47236 9.95883 9.15386 10.4647 8.91499 11.0608C8.68388 11.6375 8.52657 12.2965 8.48191 13.2614C8.43743 14.2285 8.42578 14.5377 8.42578 17.0001C8.42578 19.4625 8.43705 19.7706 8.4821 20.7377C8.52774 21.7029 8.68485 22.3618 8.91518 22.9383C9.15348 23.5346 9.47198 24.0405 9.99031 24.5444C10.5083 25.0488 11.0284 25.3593 11.6411 25.5909C12.2342 25.8151 12.9118 25.9679 13.904 26.0121C14.8983 26.0561 15.2158 26.0669 17.7473 26.0669C20.2792 26.0669 20.596 26.0561 21.5903 26.0121C22.5827 25.9679 23.2609 25.8151 23.854 25.5909C24.4669 25.3593 24.9862 25.0488 25.5042 24.5444C26.0227 24.0405 26.3412 23.5346 26.5801 22.9385C26.8092 22.3618 26.9665 21.7027 27.0132 20.7379C27.0578 19.7708 27.0695 19.4625 27.0695 17.0001C27.0695 14.5377 27.0578 14.2287 27.0132 13.2616C26.9665 12.2964 26.8092 11.6375 26.5801 11.061C26.3412 10.4647 26.0227 9.95883 25.5042 9.45487C24.9856 8.95053 24.4671 8.64075 23.8534 8.40935C23.2591 8.18514 22.5813 8.03233 21.5889 7.98813C20.5946 7.94412 20.2781 7.93335 17.7456 7.93335H17.7485ZM16.9122 9.56723C17.1604 9.56685 17.4373 9.56723 17.7485 9.56723C20.2374 9.56723 20.5324 9.57592 21.5153 9.61936C22.4242 9.65979 22.9175 9.8075 23.2461 9.9316C23.6811 10.0959 23.9913 10.2924 24.3173 10.6097C24.6436 10.9271 24.8456 11.2293 25.0149 11.6524C25.1425 11.9716 25.2946 12.4514 25.3359 13.3354C25.3806 14.2912 25.3903 14.5783 25.3903 16.998C25.3903 19.4177 25.3806 19.7048 25.3359 20.6606C25.2944 21.5446 25.1425 22.0244 25.0149 22.3436C24.846 22.7667 24.6436 23.068 24.3173 23.3852C23.9911 23.7025 23.6813 23.8989 23.2461 24.0633C22.9179 24.188 22.4242 24.3353 21.5153 24.3757C20.5326 24.4192 20.2374 24.4286 17.7485 24.4286C15.2593 24.4286 14.9643 24.4192 13.9816 24.3757C13.0727 24.3349 12.5794 24.1872 12.2507 24.0631C11.8156 23.8988 11.5049 23.7023 11.1786 23.385C10.8524 23.0676 10.6504 22.7662 10.481 22.3429C10.3534 22.0236 10.2014 21.5439 10.16 20.6598C10.1153 19.7041 10.1064 19.4169 10.1064 16.9957C10.1064 14.5745 10.1153 14.2889 10.16 13.3331C10.2016 12.4491 10.3534 11.9694 10.481 11.6498C10.65 11.2266 10.8524 10.9244 11.1786 10.6071C11.5049 10.2897 11.8156 10.0933 12.2507 9.92858C12.5793 9.80391 13.0727 9.65658 13.9816 9.61596C14.8416 9.57819 15.1748 9.56685 16.9122 9.56496V9.56723ZM22.7244 11.0727C22.1069 11.0727 21.6058 11.5595 21.6058 12.1603C21.6058 12.761 22.1069 13.2483 22.7244 13.2483C23.342 13.2483 23.8431 12.761 23.8431 12.1603C23.8431 11.5597 23.342 11.0727 22.7244 11.0727ZM17.7485 12.3439C15.1048 12.3439 12.9613 14.4287 12.9613 17.0001C12.9613 19.5715 15.1048 21.6553 17.7485 21.6553C20.3923 21.6553 22.5349 19.5715 22.5349 17.0001C22.5349 14.4287 20.3923 12.3439 17.7485 12.3439ZM17.7485 13.9778C19.4645 13.9778 20.8558 15.3309 20.8558 17.0001C20.8558 18.6691 19.4645 20.0223 17.7485 20.0223C16.0323 20.0223 14.6412 18.6691 14.6412 17.0001C14.6412 15.3309 16.0323 13.9778 17.7485 13.9778Z" fill="#2D2D2D"/>
</svg>

