<?xml version="1.0" encoding="utf-8"?>
<!-- Generator: Adobe Illustrator 24.3.0, SVG Export Plug-In . SVG Version: 6.00 Build 0)  -->
<svg version="1.1" id="Layer_1" xmlns="http://www.w3.org/2000/svg" xmlns:xlink="http://www.w3.org/1999/xlink" x="0px" y="0px"
	 viewBox="0 0 595.28 841.89" style="enable-background:new 0 0 595.28 841.89;" xml:space="preserve">
<style type="text/css">
	.st0{fill:#020203;}
	.st1{fill:#751610;}
	.st2{fill:#030304;}
	.st3{fill:#030304;stroke:#1E1E1C;stroke-miterlimit:10;}
	.st4{fill:#FFFFFF;}
	.st5{fill:#5F111B;}
</style>
<path class="st0" d="M255.45,498.4c-2.5,0.2-4.4,2.2-4.5,4.7c-0.2,10.5,2.9,36.6,37.1,41.4c52.2,7.3,45-29.6,46-34
	c0.1-0.3,0.5,0.3,0.5,0c0.1-2.9,17.1-22.8,3.3-45.8c-0.4-0.6-0.8-1.1-1.4-1.5c-3.8-2.6-19.4-13-29.2-15.4c-1.6-0.4-3.2-0.8-4.8-1.3
	c-14.8-4.7-77.6-26.7-77.9-60.2c0-0.1,0-0.3,0-0.4c-0.4-3.3-4.8-46.1,39.7-66.2l0.3-0.1c2.6-1,33.6-11.9,67.1,3.8
	c24.8,11.6,28.6,2.6,28.7-3.7c0-2.6,2.2-4.7,4.8-4.7h0.8c2.4,0,4.5,1.8,4.8,4.3l6.8,65.3c0.3,2.6-1.6,5-4.3,5.3c-0.2,0-0.3,0-0.5,0
	h-2.2c-2.2,0-4.1-1.5-4.6-3.6c-2.6-10.2-12.2-39.2-40.9-50.2c-4-1.5-8.1-2.8-12.3-3.7c-30.7-6.7-60.6,13.7-54.8,38.4
	c1.9,8.3,8,16.9,21.6,24.3c27.1,14.8,53.3,31,78.6,48.6c0,0,48.2,35.2,19.8,75.5s-65.2,38.3-65.2,38.3s-36.5-0.2-59.2-10.9
	c-5.3-2.5-11.4-2.3-16.5,0.4c-2.1,1.2-3.8,2.9-4.1,5.2c-0.3,1.8-1.6,3.4-3.4,3.9l0,0c-2.6,0.7-5.2-0.8-5.9-3.3
	c0-0.2-0.1-0.3-0.1-0.5l-7.7-49.2c-0.4-2.3-2.4-4-4.7-4h-16.7c-2.6,0-4.8-2.1-4.8-4.8v-3.9c0-2.6,2.1-4.8,4.8-4.8l0,0l67.8,0.2
	c2.6,0,4.8,2.1,4.8,4.8v2.7c0,2.5-2,4.6-4.5,4.8L255.45,498.4z"/>
<path class="st0" d="M280.05,388.3l8.8-12.6l-10.5-7l-12.7,15.5l-3.6-4.7l-44,73.5l8.5,5.5l-7,8l11,6l4-8l26.5,12.1
	c0,0,13.3-13.9,19-19.6L280.05,388.3L280.05,388.3z"/>
<polygon class="st0" points="308.05,374.9 307.35,447.8 315.65,447.8 315.65,382.8 326.55,380 "/>
<ellipse transform="matrix(0.1602 -0.9871 0.9871 0.1602 -100.1506 568.9304)" class="st1" cx="284.28" cy="343.32" rx="8.2" ry="8.2"/>
<circle class="st1" cx="318.05" cy="355.5" r="9"/>
<circle class="st1" cx="335.05" cy="328.5" r="6"/>
<circle class="st1" cx="303.05" cy="290.5" r="8"/>
<circle class="st2" cx="318.05" cy="352.8" r="5.7"/>
<circle class="st2" cx="333.05" cy="328.5" r="3"/>
<circle class="st2" cx="303.05" cy="292.5" r="6.1"/>
<circle class="st3" cx="286.85" cy="341.8" r="5.1"/>
<polygon class="st4" points="279.55,388.3 279.55,465.6 307.35,465.6 308.05,374.9 "/>
<circle class="st4" cx="296.55" cy="497" r="52.5"/>
<path class="st5" d="M266.15,501.4c-7.7,0.5-11.7,9.4-7.3,15.7c7.1,10.2,19.3,24,32.8,22.6c21.4-2.2,41.4-15.3,44.4-19.7
	s-29,3.4-38-5.5C291.55,508,278.65,500.5,266.15,501.4z"/>
<path class="st1" d="M262.35,517.5c10.5-2.4,21.5-0.3,30.3,5.7c9.1,6,20.6,7.3,30.8,3.5c0,0-14.8,6.8-27.9,9.3
	c-6.1,1.1-12.4-0.4-17.4-4C272.55,527.8,264.95,521.7,262.35,517.5z"/>
<circle class="st1" cx="252.55" cy="341.4" r="8.2"/>
<circle class="st3" cx="255.05" cy="340" r="5.1"/>
<circle class="st1" cx="262.45" cy="303.3" r="4.2"/>
<circle class="st3" cx="263.75" cy="302.6" r="2.6"/>
</svg>
