<svg width="15" height="15" viewBox="0 0 15 15" fill="none" xmlns="http://www.w3.org/2000/svg">
<path d="M14.1589 13.2006L11.5634 10.6262C12.5709 9.37 13.0588 7.77557 12.9268 6.17073C12.7948 4.56588 12.0529 3.07261 10.8537 1.99795C9.65453 0.923293 8.08917 0.348937 6.4795 0.392983C4.86984 0.437029 3.33823 1.09613 2.1996 2.23476C1.06097 3.37339 0.401873 4.905 0.357827 6.51466C0.313781 8.12432 0.888137 9.68969 1.96279 10.8889C3.03745 12.0881 4.53073 12.8299 6.13557 12.9619C7.74042 13.094 9.33485 12.6061 10.591 11.5986L13.1655 14.1731C13.2305 14.2386 13.3079 14.2907 13.3931 14.3262C13.4784 14.3617 13.5698 14.38 13.6622 14.38C13.7545 14.38 13.846 14.3617 13.9312 14.3262C14.0165 14.2907 14.0939 14.2386 14.1589 14.1731C14.285 14.0426 14.3555 13.8683 14.3555 13.6869C14.3555 13.5054 14.285 13.3311 14.1589 13.2006ZM6.66635 11.5986C5.69779 11.5986 4.75099 11.3114 3.94567 10.7733C3.14035 10.2352 2.51268 9.47036 2.14203 8.57554C1.77138 7.68071 1.6744 6.69607 1.86335 5.74613C2.05231 4.79619 2.51871 3.92361 3.20358 3.23874C3.88845 2.55387 4.76103 2.08747 5.71097 1.89851C6.66091 1.70956 7.64556 1.80653 8.54038 2.17718C9.43521 2.54783 10.2 3.1755 10.7381 3.98083C11.2762 4.78615 11.5634 5.73295 11.5634 6.7015C11.5634 8.00029 11.0475 9.24589 10.1291 10.1643C9.21073 11.0827 7.96514 11.5986 6.66635 11.5986Z" fill="#454545"/>
</svg>
